<svg xmlns="http://www.w3.org/2000/svg" width="460" height="215" viewBox="0 0 460 215">
<defs>
  <linearGradient id="c2bg" x1="0" y1="0" x2="0" y2="1">
    <stop offset="0" stop-color="#090A1A"/><stop offset="1" stop-color="#170B29"/>
  </linearGradient>
  <radialGradient id="c2r"><stop offset="0" stop-color="#FF4D6D" stop-opacity="0.55"/><stop offset="1" stop-color="#FF4D6D" stop-opacity="0"/></radialGradient>
  <radialGradient id="c2b2"><stop offset="0" stop-color="#3D8BFF" stop-opacity="0.6"/><stop offset="1" stop-color="#3D8BFF" stop-opacity="0"/></radialGradient>
  <radialGradient id="c2g"><stop offset="0" stop-color="#22C983" stop-opacity="0.4"/><stop offset="1" stop-color="#22C983" stop-opacity="0"/></radialGradient>
  <radialGradient id="c2y"><stop offset="0" stop-color="#FFC23D" stop-opacity="0.35"/><stop offset="1" stop-color="#FFC23D" stop-opacity="0"/></radialGradient>
  <radialGradient id="c2v"><stop offset="0" stop-color="#8B6CFF" stop-opacity="0.35"/><stop offset="1" stop-color="#8B6CFF" stop-opacity="0"/></radialGradient>
  <radialGradient id="c2vig"><stop offset="0.55" stop-color="#000" stop-opacity="0"/><stop offset="1" stop-color="#000" stop-opacity="0.55"/></radialGradient>
</defs>
<rect width="460" height="215" fill="url(#c2bg)"/>
<ellipse cx="82.8" cy="53.75" rx="193.2" ry="133.3" fill="url(#c2r)"/>
<ellipse cx="386.4" cy="47.3" rx="184.0" ry="129.0" fill="url(#c2b2)"/>
<ellipse cx="331.2" cy="189.2" rx="193.2" ry="118.25000000000001" fill="url(#c2g)"/>
<ellipse cx="115.0" cy="197.8" rx="165.6" ry="96.75" fill="url(#c2y)"/>
<ellipse cx="230.0" cy="107.5" rx="207.0" ry="107.5" fill="url(#c2v)"/>
<ellipse cx="230.0" cy="107.5" rx="345.0" ry="172.0" fill="url(#c2vig)"/><g transform="translate(230.0 55.24305555555556) scale(0.23291666666666666) translate(-256 -238)"><g transform="rotate(-27 256 403.0)"><rect x="191.6" y="143.5" width="140.0" height="210.0" rx="22.400000000000002" fill="#000" fill-opacity="0.28"/><rect x="186.0" y="133.0" width="140.0" height="210.0" rx="22.400000000000002" fill="#FF4D6D" stroke="#FFFFFF" stroke-width="9.8"/><path d="M 195.8 155.4 Q 195.8 142.8 208.4 142.8 L 311.3 142.8 L 195.8 248.5 Z" fill="#FFFFFF" fill-opacity="0.12"/></g><g transform="rotate(-9 256 403.0)"><rect x="191.6" y="143.5" width="140.0" height="210.0" rx="22.400000000000002" fill="#000" fill-opacity="0.28"/><rect x="186.0" y="133.0" width="140.0" height="210.0" rx="22.400000000000002" fill="#FFC23D" stroke="#FFFFFF" stroke-width="9.8"/><path d="M 195.8 155.4 Q 195.8 142.8 208.4 142.8 L 311.3 142.8 L 195.8 248.5 Z" fill="#FFFFFF" fill-opacity="0.12"/></g><g transform="rotate(9 256 403.0)"><rect x="191.6" y="143.5" width="140.0" height="210.0" rx="22.400000000000002" fill="#000" fill-opacity="0.28"/><rect x="186.0" y="133.0" width="140.0" height="210.0" rx="22.400000000000002" fill="#22C983" stroke="#FFFFFF" stroke-width="9.8"/><path d="M 195.8 155.4 Q 195.8 142.8 208.4 142.8 L 311.3 142.8 L 195.8 248.5 Z" fill="#FFFFFF" fill-opacity="0.12"/></g><g transform="rotate(27 256 403.0)"><rect x="191.6" y="143.5" width="140.0" height="210.0" rx="22.400000000000002" fill="#000" fill-opacity="0.28"/><rect x="186.0" y="133.0" width="140.0" height="210.0" rx="22.400000000000002" fill="#3D8BFF" stroke="#FFFFFF" stroke-width="9.8"/><path d="M 195.8 155.4 Q 195.8 142.8 208.4 142.8 L 311.3 142.8 L 195.8 248.5 Z" fill="#FFFFFF" fill-opacity="0.12"/><polygon points="256.0,172.9 299.4,238.0 256.0,303.1 212.6,238.0" fill="#FFFFFF" stroke="#FFFFFF" stroke-width="6.944" stroke-linejoin="round"/><polygon points="256.0,205.45 277.7,238.0 256.0,270.55 234.3,238.0" fill="#3D8BFF" fill-opacity="0.10" stroke="#3D8BFF" stroke-opacity="0.28" stroke-width="2.4303999999999997" stroke-linejoin="round"/><line x1="256.0" y1="205.45" x2="256.0" y2="172.9" stroke="#3D8BFF" stroke-opacity="0.22" stroke-width="2.0831999999999997"/><line x1="277.7" y1="238.0" x2="299.4" y2="238.0" stroke="#3D8BFF" stroke-opacity="0.22" stroke-width="2.0831999999999997"/><line x1="256.0" y1="270.55" x2="256.0" y2="303.1" stroke="#3D8BFF" stroke-opacity="0.22" stroke-width="2.0831999999999997"/><line x1="234.3" y1="238.0" x2="212.6" y2="238.0" stroke="#3D8BFF" stroke-opacity="0.22" stroke-width="2.0831999999999997"/><polygon points="256.0,172.9 234.3,238.0 212.6,238.0" fill="#FFFFFF" fill-opacity="0.0"/><path d="M 293.8 154.70000000000002 Q 296.712 169.988 312.0 172.9 Q 296.712 175.812 293.8 191.1 Q 290.88800000000003 175.812 275.6 172.9 Q 290.88800000000003 169.988 293.8 154.70000000000002 Z" fill="#FFFFFF"/></g></g><g transform="translate(112.94444444444446 106.00694444444444) scale(0.2388888888888889)"><g transform="translate(18 0)"><path d="M 130 220 A 70 70 0 1 0 270 220 A 70 70 0 1 0 130 220 Z M 270 150 V 315 Q 270 370 215 370 Q 175 370 150 352" fill="none" stroke="#000" stroke-opacity="0.25" stroke-width="74" stroke-linecap="round" stroke-linejoin="round" transform="translate(0 9)"/><path d="M 130 220 A 70 70 0 1 0 270 220 A 70 70 0 1 0 130 220 Z M 270 150 V 315 Q 270 370 215 370 Q 175 370 150 352" fill="none" stroke="#FF4D6D" stroke-width="70" stroke-linecap="round" stroke-linejoin="round"/><path d="M 130 220 A 70 70 0 1 0 270 220 A 70 70 0 1 0 130 220 Z M 270 150 V 315 Q 270 370 215 370 Q 175 370 150 352" fill="none" stroke="#FF7E95" stroke-opacity="0.55" stroke-width="30" stroke-linecap="round" stroke-linejoin="round"/><path d="M 130 220 A 70 70 0 1 0 270 220 A 70 70 0 1 0 130 220 Z M 270 150 V 315 Q 270 370 215 370 Q 175 370 150 352" fill="none" stroke="#FFFFFF" stroke-opacity="0.55" stroke-width="9" stroke-linecap="round" stroke-linejoin="round" transform="translate(-9 -11)"/><path d="M 360 60 V 290" fill="none" stroke="#000" stroke-opacity="0.25" stroke-width="74" stroke-linecap="round" stroke-linejoin="round" transform="translate(0 9)"/><path d="M 360 60 V 290" fill="none" stroke="#FFC23D" stroke-width="70" stroke-linecap="round" stroke-linejoin="round"/><path d="M 360 60 V 290" fill="none" stroke="#FFD373" stroke-opacity="0.55" stroke-width="30" stroke-linecap="round" stroke-linejoin="round"/><path d="M 360 60 V 290" fill="none" stroke="#FFFFFF" stroke-opacity="0.55" stroke-width="9" stroke-linecap="round" stroke-linejoin="round" transform="translate(-9 -11)"/><path d="M 450 150 V 290" fill="none" stroke="#000" stroke-opacity="0.25" stroke-width="74" stroke-linecap="round" stroke-linejoin="round" transform="translate(0 9)"/><path d="M 450 150 V 290" fill="none" stroke="#22C983" stroke-width="70" stroke-linecap="round" stroke-linejoin="round"/><path d="M 450 150 V 290" fill="none" stroke="#5FD8A5" stroke-opacity="0.55" stroke-width="30" stroke-linecap="round" stroke-linejoin="round"/><path d="M 450 150 V 290" fill="none" stroke="#FFFFFF" stroke-opacity="0.55" stroke-width="9" stroke-linecap="round" stroke-linejoin="round" transform="translate(-9 -11)"/><path d="M 540 290 V 150 M 540 220 Q 540 150 610 150 Q 680 150 680 220 V 290" fill="none" stroke="#000" stroke-opacity="0.25" stroke-width="74" stroke-linecap="round" stroke-linejoin="round" transform="translate(0 9)"/><path d="M 540 290 V 150 M 540 220 Q 540 150 610 150 Q 680 150 680 220 V 290" fill="none" stroke="#3D8BFF" stroke-width="70" stroke-linecap="round" stroke-linejoin="round"/><path d="M 540 290 V 150 M 540 220 Q 540 150 610 150 Q 680 150 680 220 V 290" fill="none" stroke="#73ABFF" stroke-opacity="0.55" stroke-width="30" stroke-linecap="round" stroke-linejoin="round"/><path d="M 540 290 V 150 M 540 220 Q 540 150 610 150 Q 680 150 680 220 V 290" fill="none" stroke="#FFFFFF" stroke-opacity="0.55" stroke-width="9" stroke-linecap="round" stroke-linejoin="round" transform="translate(-9 -11)"/><path d="M 770 80 V 250 Q 770 290 810 290 H 830 M 725 150 H 830" fill="none" stroke="#000" stroke-opacity="0.25" stroke-width="74" stroke-linecap="round" stroke-linejoin="round" transform="translate(0 9)"/><path d="M 770 80 V 250 Q 770 290 810 290 H 830 M 725 150 H 830" fill="none" stroke="#8B6CFF" stroke-width="70" stroke-linecap="round" stroke-linejoin="round"/><path d="M 770 80 V 250 Q 770 290 810 290 H 830 M 725 150 H 830" fill="none" stroke="#AB95FF" stroke-opacity="0.55" stroke-width="30" stroke-linecap="round" stroke-linejoin="round"/><path d="M 770 80 V 250 Q 770 290 810 290 H 830 M 725 150 H 830" fill="none" stroke="#FFFFFF" stroke-opacity="0.55" stroke-width="9" stroke-linecap="round" stroke-linejoin="round" transform="translate(-9 -11)"/><path d="M 450 -1.2999999999999972 Q 461.408 58.592 521.3 70 Q 461.408 81.408 450 141.3 Q 438.592 81.408 378.7 70 Q 438.592 58.592 450 -1.2999999999999972 Z" fill="#FFC23D" fill-opacity="0.18"/><path d="M 450 12.5 Q 459.2 60.8 507.5 70 Q 459.2 79.2 450 127.5 Q 440.8 79.2 392.5 70 Q 440.8 60.8 450 12.5 Z" fill="#FFC23D" fill-opacity="0.35"/><path d="M 450 24 Q 457.36 62.64 496 70 Q 457.36 77.36 450 116 Q 442.64 77.36 404 70 Q 442.64 62.64 450 24 Z" fill="#FFFFFF"/></g></g>
</svg>
