<svg xmlns="http://www.w3.org/2000/svg" width="630" height="500" viewBox="0 0 630 500">
<defs>
  <linearGradient id="c1bg" x1="0" y1="0" x2="0" y2="1">
    <stop offset="0" stop-color="#090A1A"/><stop offset="1" stop-color="#170B29"/>
  </linearGradient>
  <radialGradient id="c1r"><stop offset="0" stop-color="#FF4D6D" stop-opacity="0.55"/><stop offset="1" stop-color="#FF4D6D" stop-opacity="0"/></radialGradient>
  <radialGradient id="c1b2"><stop offset="0" stop-color="#3D8BFF" stop-opacity="0.6"/><stop offset="1" stop-color="#3D8BFF" stop-opacity="0"/></radialGradient>
  <radialGradient id="c1g"><stop offset="0" stop-color="#22C983" stop-opacity="0.4"/><stop offset="1" stop-color="#22C983" stop-opacity="0"/></radialGradient>
  <radialGradient id="c1y"><stop offset="0" stop-color="#FFC23D" stop-opacity="0.35"/><stop offset="1" stop-color="#FFC23D" stop-opacity="0"/></radialGradient>
  <radialGradient id="c1v"><stop offset="0" stop-color="#8B6CFF" stop-opacity="0.35"/><stop offset="1" stop-color="#8B6CFF" stop-opacity="0"/></radialGradient>
  <radialGradient id="c1vig"><stop offset="0.55" stop-color="#000" stop-opacity="0"/><stop offset="1" stop-color="#000" stop-opacity="0.55"/></radialGradient>
</defs>
<rect width="630" height="500" fill="url(#c1bg)"/>
<ellipse cx="113.39999999999999" cy="125.0" rx="264.59999999999997" ry="310.0" fill="url(#c1r)"/>
<ellipse cx="529.1999999999999" cy="110.0" rx="252.0" ry="300.0" fill="url(#c1b2)"/>
<ellipse cx="453.59999999999997" cy="440.0" rx="264.59999999999997" ry="275.0" fill="url(#c1g)"/>
<ellipse cx="157.5" cy="460.0" rx="226.79999999999998" ry="225.0" fill="url(#c1y)"/>
<ellipse cx="315.0" cy="250.0" rx="283.5" ry="250.0" fill="url(#c1v)"/>
<ellipse cx="315.0" cy="250.0" rx="472.5" ry="400.0" fill="url(#c1vig)"/><g opacity="0.35"><g transform="rotate(-24.98807028027042 602.3523806859488 475.3538869109907)"><rect x="582.152065792291" y="445.71212049094936" width="43.9137280296908" height="65.8705920445362" rx="7.026196484750528" fill="#000" fill-opacity="0.28"/><rect x="580.3955166711033" y="442.4185908887226" width="43.9137280296908" height="65.8705920445362" rx="7.026196484750528" fill="#3D8BFF" stroke="#FFFFFF" stroke-width="3.0739609620783566"/><path d="M 583.4694776331817 449.4447873734731 Q 583.4694776331817 445.4925518508009 587.4217131558539 445.4925518508009 L 619.6983032576766 445.4925518508009 L 583.4694776331817 478.6474165132175 Z" fill="#FFFFFF" fill-opacity="0.12"/><ellipse cx="602.3523806859488" cy="475.3538869109907" rx="13.17411840890724" ry="21.737295374696945" transform="rotate(-24 602.3523806859488 475.3538869109907)" fill="#FFFFFF"/></g><g transform="rotate(-33.73275482030505 338.1595729356992 8.396059739014412)"><rect x="311.69268430868226" y="-30.44122248541261" width="57.536714406558545" height="86.30507160983782" rx="9.205874305049367" fill="#000" fill-opacity="0.28"/><rect x="309.39121573241994" y="-34.7564760659045" width="57.536714406558545" height="86.30507160983782" rx="9.205874305049367" fill="#FF4D6D" stroke="#FFFFFF" stroke-width="4.027570008459098"/><path d="M 313.41878574087906 -25.550601760855134 Q 313.41878574087906 -30.728906057445403 318.5970900374693 -30.728906057445403 L 360.8865751262898 -30.728906057445403 L 313.41878574087906 12.71131331950631 Z" fill="#FFFFFF" fill-opacity="0.12"/><ellipse cx="338.1595729356992" cy="8.396059739014412" rx="17.26101432196756" ry="28.480673631246482" transform="rotate(-24 338.1595729356992 8.396059739014412)" fill="#FFFFFF"/></g></g><g transform="translate(315.0 150.0859375) scale(0.44533125) translate(-256 -238)"><g transform="rotate(-27 256 403.0)"><rect x="191.6" y="143.5" width="140.0" height="210.0" rx="22.400000000000002" fill="#000" fill-opacity="0.28"/><rect x="186.0" y="133.0" width="140.0" height="210.0" rx="22.400000000000002" fill="#FF4D6D" stroke="#FFFFFF" stroke-width="9.8"/><path d="M 195.8 155.4 Q 195.8 142.8 208.4 142.8 L 311.3 142.8 L 195.8 248.5 Z" fill="#FFFFFF" fill-opacity="0.12"/></g><g transform="rotate(-9 256 403.0)"><rect x="191.6" y="143.5" width="140.0" height="210.0" rx="22.400000000000002" fill="#000" fill-opacity="0.28"/><rect x="186.0" y="133.0" width="140.0" height="210.0" rx="22.400000000000002" fill="#FFC23D" stroke="#FFFFFF" stroke-width="9.8"/><path d="M 195.8 155.4 Q 195.8 142.8 208.4 142.8 L 311.3 142.8 L 195.8 248.5 Z" fill="#FFFFFF" fill-opacity="0.12"/></g><g transform="rotate(9 256 403.0)"><rect x="191.6" y="143.5" width="140.0" height="210.0" rx="22.400000000000002" fill="#000" fill-opacity="0.28"/><rect x="186.0" y="133.0" width="140.0" height="210.0" rx="22.400000000000002" fill="#22C983" stroke="#FFFFFF" stroke-width="9.8"/><path d="M 195.8 155.4 Q 195.8 142.8 208.4 142.8 L 311.3 142.8 L 195.8 248.5 Z" fill="#FFFFFF" fill-opacity="0.12"/></g><g transform="rotate(27 256 403.0)"><rect x="191.6" y="143.5" width="140.0" height="210.0" rx="22.400000000000002" fill="#000" fill-opacity="0.28"/><rect x="186.0" y="133.0" width="140.0" height="210.0" rx="22.400000000000002" fill="#3D8BFF" stroke="#FFFFFF" stroke-width="9.8"/><path d="M 195.8 155.4 Q 195.8 142.8 208.4 142.8 L 311.3 142.8 L 195.8 248.5 Z" fill="#FFFFFF" fill-opacity="0.12"/><ellipse cx="256.0" cy="238.0" rx="42.0" ry="69.3" transform="rotate(-24 256.0 238.0)" fill="#FFFFFF"/><path d="M 229.89830508474577 197.66101694915255 V 242.74576271186442 A 26.101694915254235 26.101694915254235 0 0 0 282.10169491525426 242.74576271186442 V 197.66101694915255" fill="none" stroke="#3D8BFF" stroke-width="20.169491525423727" stroke-linecap="round" stroke-linejoin="round"/></g></g><g transform="translate(91.1925 247.1453125) scale(0.45675)"><path d="M 80 70 V 190 A 75 75 0 0 0 230 190 V 70" fill="none" stroke="#000" stroke-opacity="0.25" stroke-width="74" stroke-linecap="round" stroke-linejoin="round" transform="translate(0 9)"/><path d="M 80 70 V 190 A 75 75 0 0 0 230 190 V 70" fill="none" stroke="#FF4D6D" stroke-width="70" stroke-linecap="round" stroke-linejoin="round"/><path d="M 80 70 V 190 A 75 75 0 0 0 230 190 V 70" fill="none" stroke="#FF7E95" stroke-opacity="0.55" stroke-width="30" stroke-linecap="round" stroke-linejoin="round"/><path d="M 80 70 V 190 A 75 75 0 0 0 230 190 V 70" fill="none" stroke="#FFFFFF" stroke-opacity="0.55" stroke-width="9" stroke-linecap="round" stroke-linejoin="round" transform="translate(-9 -11)"/><path d="M 330 270 V 70 L 480 270 V 70" fill="none" stroke="#000" stroke-opacity="0.25" stroke-width="74" stroke-linecap="round" stroke-linejoin="round" transform="translate(0 9)"/><path d="M 330 270 V 70 L 480 270 V 70" fill="none" stroke="#FFC23D" stroke-width="70" stroke-linecap="round" stroke-linejoin="round"/><path d="M 330 270 V 70 L 480 270 V 70" fill="none" stroke="#FFD373" stroke-opacity="0.55" stroke-width="30" stroke-linecap="round" stroke-linejoin="round"/><path d="M 330 270 V 70 L 480 270 V 70" fill="none" stroke="#FFFFFF" stroke-opacity="0.55" stroke-width="9" stroke-linecap="round" stroke-linejoin="round" transform="translate(-9 -11)"/><path d="M 655 70 A 95 100 0 1 1 654.9 70 Z" fill="none" stroke="#000" stroke-opacity="0.25" stroke-width="74" stroke-linecap="round" stroke-linejoin="round" transform="translate(0 9)"/><path d="M 655 70 A 95 100 0 1 1 654.9 70 Z" fill="none" stroke="#22C983" stroke-width="70" stroke-linecap="round" stroke-linejoin="round"/><path d="M 655 70 A 95 100 0 1 1 654.9 70 Z" fill="none" stroke="#5FD8A5" stroke-opacity="0.55" stroke-width="30" stroke-linecap="round" stroke-linejoin="round"/><path d="M 655 70 A 95 100 0 1 1 654.9 70 Z" fill="none" stroke="#FFFFFF" stroke-opacity="0.55" stroke-width="9" stroke-linecap="round" stroke-linejoin="round" transform="translate(-9 -11)"/><g transform="rotate(14 845 205)"><rect x="803.6" y="146.5" width="90" height="130" rx="14.4" fill="#000" fill-opacity="0.28"/><rect x="800" y="140" width="90" height="130" rx="14.4" fill="#3D8BFF" stroke="#FFFFFF" stroke-width="6.300000000000001"/><path d="M 806.3 154.4 Q 806.3 146.3 814.4 146.3 L 880.55 146.3 L 806.3 211.5 Z" fill="#FFFFFF" fill-opacity="0.12"/><ellipse cx="845.0" cy="205.0" rx="27.0" ry="42.9" transform="rotate(-24 845.0 205.0)" fill="#FFFFFF"/></g><path d="M 332 318 A 17 22 0 1 0 334 340 H 320" transform="translate(30 34)" fill="none" stroke="#FFFFFF" stroke-opacity="0.88" stroke-width="9" stroke-linecap="round" stroke-linejoin="round"/><path d="M 376 310 V 354 H 404" transform="translate(30 34)" fill="none" stroke="#FFFFFF" stroke-opacity="0.88" stroke-width="9" stroke-linecap="round" stroke-linejoin="round"/><path d="M 446 354 L 463 310 L 480 354 M 453 339 H 473" transform="translate(30 34)" fill="none" stroke="#FFFFFF" stroke-opacity="0.88" stroke-width="9" stroke-linecap="round" stroke-linejoin="round"/><path d="M 550 316 C 544 309 524 308 522 320 C 520 332 552 330 552 344 C 552 357 528 357 520 348" transform="translate(30 34)" fill="none" stroke="#FFFFFF" stroke-opacity="0.88" stroke-width="9" stroke-linecap="round" stroke-linejoin="round"/><path d="M 624 316 C 618 309 598 308 596 320 C 594 332 626 330 626 344 C 626 357 602 357 594 348" transform="translate(30 34)" fill="none" stroke="#FFFFFF" stroke-opacity="0.88" stroke-width="9" stroke-linecap="round" stroke-linejoin="round"/></g>
</svg>
