<svg xmlns="http://www.w3.org/2000/svg" width="1920" height="1080" viewBox="0 0 1920 1080">
<defs>
  <linearGradient id="kabg" x1="0" y1="0" x2="0" y2="1">
    <stop offset="0" stop-color="#090A1A"/><stop offset="1" stop-color="#170B29"/>
  </linearGradient>
  <radialGradient id="kar"><stop offset="0" stop-color="#FF4D6D" stop-opacity="0.55"/><stop offset="1" stop-color="#FF4D6D" stop-opacity="0"/></radialGradient>
  <radialGradient id="kab2"><stop offset="0" stop-color="#3D8BFF" stop-opacity="0.6"/><stop offset="1" stop-color="#3D8BFF" stop-opacity="0"/></radialGradient>
  <radialGradient id="kag"><stop offset="0" stop-color="#22C983" stop-opacity="0.4"/><stop offset="1" stop-color="#22C983" stop-opacity="0"/></radialGradient>
  <radialGradient id="kay"><stop offset="0" stop-color="#FFC23D" stop-opacity="0.35"/><stop offset="1" stop-color="#FFC23D" stop-opacity="0"/></radialGradient>
  <radialGradient id="kav"><stop offset="0" stop-color="#8B6CFF" stop-opacity="0.35"/><stop offset="1" stop-color="#8B6CFF" stop-opacity="0"/></radialGradient>
  <radialGradient id="kavig"><stop offset="0.55" stop-color="#000" stop-opacity="0"/><stop offset="1" stop-color="#000" stop-opacity="0.55"/></radialGradient>
</defs>
<rect width="1920" height="1080" fill="url(#kabg)"/>
<ellipse cx="345.59999999999997" cy="270.0" rx="806.4" ry="669.6" fill="url(#kar)"/>
<ellipse cx="1612.8" cy="237.6" rx="768.0" ry="648.0" fill="url(#kab2)"/>
<ellipse cx="1382.3999999999999" cy="950.4" rx="806.4" ry="594.0" fill="url(#kag)"/>
<ellipse cx="480.0" cy="993.6" rx="691.1999999999999" ry="486.0" fill="url(#kay)"/>
<ellipse cx="960.0" cy="540.0" rx="864.0" ry="540.0" fill="url(#kav)"/>
<ellipse cx="960.0" cy="540.0" rx="1440.0" ry="864.0" fill="url(#kavig)"/><g opacity="0.35"><g transform="rotate(38.84544471450397 1012.4670937716623 1041.3349928885125)"><rect x="967.0295508754131" y="974.660337551625" width="98.77726716575924" height="148.16590074863888" rx="15.804362746521479" fill="#000" fill-opacity="0.28"/><rect x="963.0784601887827" y="967.2520425141931" width="98.77726716575924" height="148.16590074863888" rx="15.804362746521479" fill="#FFC23D" stroke="#FFFFFF" stroke-width="6.914408701603148"/><path d="M 969.9928688903859 983.0564052607147 Q 969.9928688903859 974.1664512157963 978.8828229353043 974.1664512157963 L 1051.4841143021374 974.1664512157963 L 969.9928688903859 1048.7432879259445 Z" fill="#FFFFFF" fill-opacity="0.12"/><ellipse cx="1012.4670937716623" cy="1041.3349928885125" rx="29.63318014972777" ry="48.89474724705083" transform="rotate(-24 1012.4670937716623 1041.3349928885125)" fill="#FFFFFF"/></g><g transform="rotate(-5.916595198171223 232.2574356623719 79.13929491490755)"><rect x="167.39830618052562" y="-16.034427694323412" width="140.99810756923105" height="211.4971613538466" rx="22.55969721107697" fill="#000" fill-opacity="0.28"/><rect x="161.7583818777564" y="-26.60928576201574" width="140.99810756923105" height="211.4971613538466" rx="22.55969721107697" fill="#161624" stroke="#FFFFFF" stroke-width="9.869867529846175"/><path d="M 171.62824940760257 -4.049588550938772 Q 171.62824940760257 -16.739418232169566 184.31807908883337 -16.739418232169566 L 287.95168815221814 -16.739418232169566 L 171.62824940760257 89.71415298259988 Z" fill="#FFFFFF" fill-opacity="0.12"/></g><g transform="rotate(-34.505699492531754 211.39091529092394 700.3000468669796)"><rect x="144.38753455066944" y="601.9798686068236" width="145.65952334837937" height="218.48928502256908" rx="23.3055237357407" fill="#000" fill-opacity="0.28"/><rect x="138.56115361673426" y="591.0554043556951" width="145.65952334837937" height="218.48928502256908" rx="23.3055237357407" fill="#FF4D6D" stroke="#FFFFFF" stroke-width="10.196166634386557"/><path d="M 148.7573202511208 614.3609280914359 Q 148.7573202511208 601.2515709900817 161.86667735247497 601.2515709900817 L 268.9264270135338 601.2515709900817 L 148.7573202511208 711.2245111181081 Z" fill="#FFFFFF" fill-opacity="0.12"/><ellipse cx="211.39091529092394" cy="700.3000468669796" rx="43.69785700451381" ry="72.1014640574478" transform="rotate(-24 211.39091529092394 700.3000468669796)" fill="#FFFFFF"/></g></g><rect x="300.0" y="154.0" width="1320.0" height="768.0" rx="48.0" fill="#000" fill-opacity="0.25"/><rect x="300.0" y="144.0" width="1320.0" height="768.0" rx="48.0" fill="#FFFFFF" fill-opacity="0.09"/><rect x="300.0" y="144.0" width="1320.0" height="384.0" rx="48.0" fill="#FFFFFF" fill-opacity="0.04"/><rect x="300.75" y="144.75" width="1318.5" height="766.5" rx="48.0" fill="none" stroke="#FFFFFF" stroke-opacity="0.3" stroke-width="1.5"/><g transform="translate(960.0 330.0) scale(0.9359999999999999) translate(-256 -238)"><g transform="rotate(-27 256 403.0)"><rect x="191.6" y="143.5" width="140.0" height="210.0" rx="22.400000000000002" fill="#000" fill-opacity="0.28"/><rect x="186.0" y="133.0" width="140.0" height="210.0" rx="22.400000000000002" fill="#FF4D6D" stroke="#FFFFFF" stroke-width="9.8"/><path d="M 195.8 155.4 Q 195.8 142.8 208.4 142.8 L 311.3 142.8 L 195.8 248.5 Z" fill="#FFFFFF" fill-opacity="0.12"/></g><g transform="rotate(-9 256 403.0)"><rect x="191.6" y="143.5" width="140.0" height="210.0" rx="22.400000000000002" fill="#000" fill-opacity="0.28"/><rect x="186.0" y="133.0" width="140.0" height="210.0" rx="22.400000000000002" fill="#FFC23D" stroke="#FFFFFF" stroke-width="9.8"/><path d="M 195.8 155.4 Q 195.8 142.8 208.4 142.8 L 311.3 142.8 L 195.8 248.5 Z" fill="#FFFFFF" fill-opacity="0.12"/></g><g transform="rotate(9 256 403.0)"><rect x="191.6" y="143.5" width="140.0" height="210.0" rx="22.400000000000002" fill="#000" fill-opacity="0.28"/><rect x="186.0" y="133.0" width="140.0" height="210.0" rx="22.400000000000002" fill="#22C983" stroke="#FFFFFF" stroke-width="9.8"/><path d="M 195.8 155.4 Q 195.8 142.8 208.4 142.8 L 311.3 142.8 L 195.8 248.5 Z" fill="#FFFFFF" fill-opacity="0.12"/></g><g transform="rotate(27 256 403.0)"><rect x="191.6" y="143.5" width="140.0" height="210.0" rx="22.400000000000002" fill="#000" fill-opacity="0.28"/><rect x="186.0" y="133.0" width="140.0" height="210.0" rx="22.400000000000002" fill="#3D8BFF" stroke="#FFFFFF" stroke-width="9.8"/><path d="M 195.8 155.4 Q 195.8 142.8 208.4 142.8 L 311.3 142.8 L 195.8 248.5 Z" fill="#FFFFFF" fill-opacity="0.12"/><ellipse cx="256.0" cy="238.0" rx="42.0" ry="69.3" transform="rotate(-24 256.0 238.0)" fill="#FFFFFF"/><path d="M 229.89830508474577 197.66101694915255 V 242.74576271186442 A 26.101694915254235 26.101694915254235 0 0 0 282.10169491525426 242.74576271186442 V 197.66101694915255" fill="none" stroke="#3D8BFF" stroke-width="20.169491525423727" stroke-linecap="round" stroke-linejoin="round"/></g></g><g transform="translate(489.59999999999997 534.0) scale(0.96)"><path d="M 80 70 V 190 A 75 75 0 0 0 230 190 V 70" fill="none" stroke="#000" stroke-opacity="0.25" stroke-width="74" stroke-linecap="round" stroke-linejoin="round" transform="translate(0 9)"/><path d="M 80 70 V 190 A 75 75 0 0 0 230 190 V 70" fill="none" stroke="#FF4D6D" stroke-width="70" stroke-linecap="round" stroke-linejoin="round"/><path d="M 80 70 V 190 A 75 75 0 0 0 230 190 V 70" fill="none" stroke="#FF7E95" stroke-opacity="0.55" stroke-width="30" stroke-linecap="round" stroke-linejoin="round"/><path d="M 80 70 V 190 A 75 75 0 0 0 230 190 V 70" fill="none" stroke="#FFFFFF" stroke-opacity="0.55" stroke-width="9" stroke-linecap="round" stroke-linejoin="round" transform="translate(-9 -11)"/><path d="M 330 270 V 70 L 480 270 V 70" fill="none" stroke="#000" stroke-opacity="0.25" stroke-width="74" stroke-linecap="round" stroke-linejoin="round" transform="translate(0 9)"/><path d="M 330 270 V 70 L 480 270 V 70" fill="none" stroke="#FFC23D" stroke-width="70" stroke-linecap="round" stroke-linejoin="round"/><path d="M 330 270 V 70 L 480 270 V 70" fill="none" stroke="#FFD373" stroke-opacity="0.55" stroke-width="30" stroke-linecap="round" stroke-linejoin="round"/><path d="M 330 270 V 70 L 480 270 V 70" fill="none" stroke="#FFFFFF" stroke-opacity="0.55" stroke-width="9" stroke-linecap="round" stroke-linejoin="round" transform="translate(-9 -11)"/><path d="M 655 70 A 95 100 0 1 1 654.9 70 Z" fill="none" stroke="#000" stroke-opacity="0.25" stroke-width="74" stroke-linecap="round" stroke-linejoin="round" transform="translate(0 9)"/><path d="M 655 70 A 95 100 0 1 1 654.9 70 Z" fill="none" stroke="#22C983" stroke-width="70" stroke-linecap="round" stroke-linejoin="round"/><path d="M 655 70 A 95 100 0 1 1 654.9 70 Z" fill="none" stroke="#5FD8A5" stroke-opacity="0.55" stroke-width="30" stroke-linecap="round" stroke-linejoin="round"/><path d="M 655 70 A 95 100 0 1 1 654.9 70 Z" fill="none" stroke="#FFFFFF" stroke-opacity="0.55" stroke-width="9" stroke-linecap="round" stroke-linejoin="round" transform="translate(-9 -11)"/><g transform="rotate(14 845 205)"><rect x="803.6" y="146.5" width="90" height="130" rx="14.4" fill="#000" fill-opacity="0.28"/><rect x="800" y="140" width="90" height="130" rx="14.4" fill="#3D8BFF" stroke="#FFFFFF" stroke-width="6.300000000000001"/><path d="M 806.3 154.4 Q 806.3 146.3 814.4 146.3 L 880.55 146.3 L 806.3 211.5 Z" fill="#FFFFFF" fill-opacity="0.12"/><ellipse cx="845.0" cy="205.0" rx="27.0" ry="42.9" transform="rotate(-24 845.0 205.0)" fill="#FFFFFF"/></g><path d="M 332 318 A 17 22 0 1 0 334 340 H 320" transform="translate(30 34)" fill="none" stroke="#FFFFFF" stroke-opacity="0.88" stroke-width="9" stroke-linecap="round" stroke-linejoin="round"/><path d="M 376 310 V 354 H 404" transform="translate(30 34)" fill="none" stroke="#FFFFFF" stroke-opacity="0.88" stroke-width="9" stroke-linecap="round" stroke-linejoin="round"/><path d="M 446 354 L 463 310 L 480 354 M 453 339 H 473" transform="translate(30 34)" fill="none" stroke="#FFFFFF" stroke-opacity="0.88" stroke-width="9" stroke-linecap="round" stroke-linejoin="round"/><path d="M 550 316 C 544 309 524 308 522 320 C 520 332 552 330 552 344 C 552 357 528 357 520 348" transform="translate(30 34)" fill="none" stroke="#FFFFFF" stroke-opacity="0.88" stroke-width="9" stroke-linecap="round" stroke-linejoin="round"/><path d="M 624 316 C 618 309 598 308 596 320 C 594 332 626 330 626 344 C 626 357 602 357 594 348" transform="translate(30 34)" fill="none" stroke="#FFFFFF" stroke-opacity="0.88" stroke-width="9" stroke-linecap="round" stroke-linejoin="round"/></g>
</svg>
